<?xml version="1.0" encoding="UTF-8" standalone="no"?>
<svg
   xmlns:dc="http://purl.org/dc/elements/1.1/"
   xmlns:cc="http://creativecommons.org/ns#"
   xmlns:rdf="http://www.w3.org/1999/02/22-rdf-syntax-ns#"
   xmlns:svg="http://www.w3.org/2000/svg"
   xmlns="http://www.w3.org/2000/svg"
   xmlns:sodipodi="http://sodipodi.sourceforge.net/DTD/sodipodi-0.dtd"
   xmlns:inkscape="http://www.inkscape.org/namespaces/inkscape"
   sodipodi:docname="fulllogo white.svg"
   inkscape:version="1.0 (4035a4fb49, 2020-05-01)"
   id="svg954"
   version="1.1"
   viewBox="0 0 655.2641 118.79562"
   height="118.79562mm"
   width="655.2641mm">
  <defs
     id="defs948" />
  <sodipodi:namedview
     showgrid="false"
     inkscape:document-rotation="0"
     inkscape:current-layer="layer1"
     inkscape:document-units="mm"
     inkscape:cy="-170.61469"
     inkscape:cx="1127.7282"
     inkscape:zoom="0.35"
     inkscape:pageshadow="2"
     inkscape:pageopacity="0.0"
     borderopacity="1.0"
     bordercolor="#666666"
     pagecolor="#ffffff"
     id="base" />
  <metadata
     id="metadata951">
    <rdf:RDF>
      <cc:Work
         rdf:about="">
        <dc:format>image/svg+xml</dc:format>
        <dc:type
           rdf:resource="http://purl.org/dc/dcmitype/StillImage" />
        <dc:title></dc:title>
      </cc:Work>
    </rdf:RDF>
  </metadata>
  <g
     transform="translate(168.88204,-19.221233)"
     id="layer1"
     inkscape:groupmode="layer"
     inkscape:label="Layer 1">
    <path
       d="m -103.40335,19.220716 -25.84907,0.155546 a 7.4985056,7.4985056 0 0 0 -7.45484,7.542176 7.4985056,7.4985056 0 0 0 7.54424,7.454841 l 25.75399,-0.155545 c 0.002,1.3e-5 0.004,-1.5e-5 0.006,0 6.082639,0.04172 10.340833,2.002083 13.359911,5.096846 2.981931,3.056677 4.875842,7.475911 5.011579,13.332002 -0.303533,7.408164 -3.278629,9.987222 -7.971605,12.393044 -4.732631,2.426147 -10.950115,3.315567 -15.295705,4.018359 l -28.56053,4.617805 -15.48433,-49.057987 a 7.4985056,7.4985056 0 0 0 -9.40821,-4.894275 7.4985056,7.4985056 0 0 0 -4.89324,9.408211 l 15.45693,48.970138 c -0.51614,0.237443 -1.03199,0.487524 -1.54667,0.751374 -7.89641,4.048038 -15.70494,12.688803 -16.14217,25.381909 a 7.4992554,7.4992554 0 0 0 -0.003,0.37362 c 0.14096,9.21274 3.34539,17.69209 9.29142,23.78718 5.94604,6.0951 14.4933,9.55746 24.0006,9.6206 a 7.4992554,7.4992554 0 0 0 0.0956,0 l 25.84906,-0.15399 a 7.4985056,7.4985056 0 0 0 7.4533,-7.54373 7.4985056,7.4985056 0 0 0 -7.5427,-7.45277 l -25.75553,0.15348 c -0.002,-2e-5 -0.004,1e-5 -0.006,0 -6.08263,-0.0417 -10.34083,-2.00054 -13.3599,-5.0953 -2.98194,-3.05669 -4.87587,-7.4769 -5.01159,-13.33304 0.30355,-7.408107 3.2802,-9.985667 7.97316,-12.391486 4.73263,-2.42615 10.95012,-3.316087 15.29571,-4.018876 l 28.55898,-4.619357 15.484325,49.059539 a 7.4985056,7.4985056 0 0 0 9.40821,4.89324 7.4985056,7.4985056 0 0 0 4.894791,-9.40666 l -15.45745,-48.972723 c 0.515787,-0.237299 1.031304,-0.486669 1.54564,-0.75034 7.8964,-4.048048 15.704939,-12.689321 16.142168,-25.382431 a 7.4992554,7.4992554 0 0 0 0.0047,-0.373105 c -0.14097,-9.21273 -3.346939,-17.692086 -9.292979,-23.787177 -5.946029,-6.095091 -14.49329,-9.557974 -24.000605,-9.621118 a 7.4992554,7.4992554 0 0 0 -0.0941,0 z"
       style="color:#000000;font-style:normal;font-variant:normal;font-weight:normal;font-stretch:normal;font-size:medium;line-height:normal;font-family:sans-serif;font-variant-ligatures:normal;font-variant-position:normal;font-variant-caps:normal;font-variant-numeric:normal;font-variant-alternates:normal;font-variant-east-asian:normal;font-feature-settings:normal;font-variation-settings:normal;text-indent:0;text-align:start;text-decoration:none;text-decoration-line:none;text-decoration-style:solid;text-decoration-color:#000000;letter-spacing:normal;word-spacing:normal;text-transform:none;writing-mode:lr-tb;direction:ltr;text-orientation:mixed;dominant-baseline:auto;baseline-shift:baseline;text-anchor:start;white-space:normal;shape-padding:0;shape-margin:0;inline-size:0;clip-rule:nonzero;display:inline;overflow:visible;visibility:visible;isolation:auto;mix-blend-mode:normal;color-interpolation:sRGB;color-interpolation-filters:linearRGB;solid-color:#000000;solid-opacity:1;vector-effect:none;fill:#ffffff;fill-opacity:1;fill-rule:nonzero;stroke:none;stroke-width:14.997;stroke-linecap:round;stroke-linejoin:round;stroke-miterlimit:4;stroke-dasharray:none;stroke-dashoffset:0;stroke-opacity:1;color-rendering:auto;image-rendering:auto;shape-rendering:auto;text-rendering:auto;enable-background:accumulate;stop-color:#000000"
       id="path1575" />
    <circle
       style="fill:#ed7e48;fill-opacity:1;stroke:none;stroke-width:0;stroke-linecap:round;stroke-linejoin:round;stroke-miterlimit:4;stroke-dasharray:none;stroke-opacity:1"
       id="circle1039"
       cx="-104.51104"
       cy="51.105988"
       r="9.3731327" />
    <circle
       transform="scale(-1)"
       r="9.3731327"
       cy="-106.13211"
       cx="134.38629"
       id="circle1043"
       style="fill:#ed7e48;fill-opacity:1;stroke:none;stroke-width:0;stroke-linecap:round;stroke-linejoin:round;stroke-miterlimit:4;stroke-dasharray:none;stroke-opacity:1" />
    <path
       inkscape:connector-curvature="0"
       id="path822"
       style="font-style:normal;font-variant:normal;font-weight:600;font-stretch:normal;font-size:147.474px;line-height:1.25;font-family:nunito;-inkscape-font-specification:'nunito Semi-Bold';letter-spacing:0px;word-spacing:0px;fill:#ffffff;fill-opacity:1;stroke:none;stroke-width:1.10606"
       d="m 1.99983,118.84517 q 2.06464,0 3.39191,1.62222 1.32727,1.62222 1.32727,4.12929 0,4.27676 -5.30908,7.22625 -5.1616,2.94949 -11.35553,4.5717 -6.04645,1.62222 -11.65048,1.62222 -17.10704,0 -26.98783,-9.88079 -9.88079,-10.02826 -9.88079,-27.28277 0,-11.06058 4.27676,-19.6141 4.42424,-8.55352 12.24038,-13.2727 7.96362,-4.71919 17.99189,-4.71919 14.45249,0 22.85854,9.29089 8.40604,9.2909 8.40604,25.07066 0,5.89898 -5.30908,5.89898 h -45.56961 q 1.47475,22.85854 21.9737,22.85854 5.45655,0 9.43836,-1.47474 3.98181,-1.47475 8.40605,-3.83434 0.44242,-0.29495 2.35959,-1.1798 2.06464,-1.03232 3.39191,-1.03232 z M -23.66073,74.16041 q -8.55351,0 -13.71512,5.45656 -5.16161,5.45655 -6.19393,15.33734 h 38.04841 q -0.44242,-10.02826 -5.1616,-15.33734 -4.57171,-5.45656 -12.97776,-5.45656 z" />
    <path
       inkscape:connector-curvature="0"
       id="path824"
       style="font-style:normal;font-variant:normal;font-weight:600;font-stretch:normal;font-size:147.474px;line-height:1.25;font-family:nunito;-inkscape-font-specification:'nunito Semi-Bold';letter-spacing:0px;word-spacing:0px;fill:#ffffff;fill-opacity:1;stroke:none;stroke-width:1.10606"
       d="m 54.54452,138.01685 q -10.47069,0 -18.43431,-4.57171 -7.81614,-4.5717 -12.24038,-12.97775 -4.27676,-8.40604 -4.27676,-19.46663 0,-11.20805 4.42424,-19.76157 4.5717,-8.55352 12.6828,-13.2727 8.11109,-4.71919 18.58178,-4.71919 5.60403,0 11.20806,1.62222 5.7515,1.62222 10.17574,4.42424 4.71918,3.24443 4.71918,7.52119 0,2.50707 -1.32727,4.27676 -1.32727,1.62222 -3.39191,1.62222 -1.32727,0 -2.65454,-0.5899 -1.32727,-0.73737 -3.39192,-2.06464 -3.68686,-2.35959 -6.93129,-3.53939 -3.09697,-1.32727 -7.5212,-1.32727 -10.02826,0 -15.63229,6.78383 -5.45656,6.78382 -5.45656,18.87673 0,12.09291 5.45656,18.72926 5.45655,6.48887 15.48481,6.48887 4.42424,0 7.81615,-1.32727 3.39191,-1.32727 6.9313,-3.53938 1.62222,-1.03233 3.24444,-1.7697 1.62222,-0.73737 2.94949,-0.73737 2.06464,0 3.39191,1.76969 1.32727,1.62222 1.32727,4.12929 0,2.06464 -1.1798,3.83433 -1.03232,1.62222 -3.68686,3.39192 -4.42423,2.94949 -10.32321,4.5717 -5.89898,1.62222 -11.94543,1.62222 z" />
    <path
       inkscape:connector-curvature="0"
       id="path826"
       style="font-style:normal;font-variant:normal;font-weight:600;font-stretch:normal;font-size:147.474px;line-height:1.25;font-family:nunito;-inkscape-font-specification:'nunito Semi-Bold';letter-spacing:0px;word-spacing:0px;fill:#ffffff;fill-opacity:1;stroke:none;stroke-width:1.10606"
       d="m 150.6126,63.54225 q 3.39191,0 5.30908,1.91717 2.06464,1.91717 2.06464,5.30908 v 60.0221 q 0,3.09697 -2.06464,5.01414 -2.06464,1.91716 -5.45655,1.91716 -3.09697,0 -5.01414,-1.76969 -1.91716,-1.91717 -1.91716,-5.01413 v -5.60403 q -3.39192,6.19393 -9.43837,9.43837 -5.89898,3.24443 -13.2727,3.24443 -26.25045,0 -26.25045,-28.90499 V 70.7685 q 0,-3.39191 1.91716,-5.30908 2.06465,-1.91717 5.60403,-1.91717 3.39192,0 5.30908,1.91717 2.06465,1.91717 2.06465,5.30908 v 38.19589 q 0,8.70099 3.53938,12.83027 3.53939,4.12929 10.91311,4.12929 8.701,0 13.8626,-5.60403 5.30908,-5.60403 5.30908,-14.89492 V 70.7685 q 0,-3.24444 2.06464,-5.16161 2.06465,-2.06464 5.45656,-2.06464 z" />
    <path
       inkscape:connector-curvature="0"
       id="path828"
       style="font-style:normal;font-variant:normal;font-weight:600;font-stretch:normal;font-size:147.474px;line-height:1.25;font-family:nunito;-inkscape-font-specification:'nunito Semi-Bold';letter-spacing:0px;word-spacing:0px;fill:#ffffff;fill-opacity:1;stroke:none;stroke-width:1.10606"
       d="m 216.43924,63.54225 q 7.0788,-0.44242 7.0788,6.04646 0,3.24443 -1.6223,4.86665 -1.6222,1.62222 -5.604,1.91717 l -4.4242,0.44242 q -9.2909,0.88485 -13.8626,6.48888 -4.42427,5.60403 -4.42427,13.56765 v 33.77165 q 0,3.53939 -2.06464,5.30908 -2.06464,1.76969 -5.30908,1.76969 -3.24444,0 -5.45656,-1.76969 -2.06464,-1.76969 -2.06464,-5.30908 v -60.0221 q 0,-3.39192 2.06464,-5.16161 2.21212,-1.91717 5.45656,-1.91717 2.94949,0 4.86666,1.91717 2.06464,1.76969 2.06464,5.01413 v 7.07878 q 2.94949,-6.48888 8.55349,-9.88079 5.6041,-3.39192 12.6828,-3.98181 z" />
    <path
       inkscape:connector-curvature="0"
       id="path830"
       style="font-style:normal;font-variant:normal;font-weight:600;font-stretch:normal;font-size:147.474px;line-height:1.25;font-family:nunito;-inkscape-font-specification:'nunito Semi-Bold';letter-spacing:0px;word-spacing:0px;fill:#ffffff;fill-opacity:1;stroke:none;stroke-width:1.10606"
       d="m 256.75504,138.01685 q -15.0424,0 -24.6282,-6.19392 -2.6546,-1.62222 -3.8344,-3.39192 -1.0323,-1.76969 -1.0323,-3.98181 0,-2.35959 1.3273,-3.98181 1.3273,-1.62222 3.3919,-1.62222 1.9172,0 6.0465,2.3596 4.4242,2.35959 8.5535,3.83433 4.2767,1.47475 10.6181,1.47475 7.0788,0 11.0606,-2.50707 3.9818,-2.50707 3.9818,-7.07877 0,-2.94949 -1.6222,-4.71919 -1.4747,-1.76969 -5.3091,-3.09696 -3.8343,-1.47475 -11.3555,-3.09696 -12.9778,-2.80202 -18.7293,-7.5212 -5.604,-4.86666 -5.604,-13.12523 0,-6.3414 3.6869,-11.35553 3.6868,-5.16161 10.1757,-7.96362 6.4889,-2.80202 14.7475,-2.80202 5.8989,0 11.503,1.62222 5.604,1.47475 9.8808,4.42424 4.8666,3.24443 4.8666,7.52119 0,2.35959 -1.4747,3.98181 -1.3273,1.62222 -3.2445,1.62222 -1.3272,0 -2.6545,-0.58989 -1.3273,-0.5899 -3.5394,-1.91717 -3.9818,-2.35959 -7.5212,-3.68686 -3.3919,-1.32727 -8.5535,-1.32727 -6.1939,0 -10.0283,2.65454 -3.6868,2.65454 -3.6868,7.22624 0,4.12929 3.3919,6.48888 3.5394,2.21212 13.1252,4.27676 9.8808,2.06464 15.4848,4.71918 5.6041,2.65454 7.9636,6.63635 2.5071,3.83434 2.5071,9.88079 0,9.58584 -8.1111,15.48482 -7.9636,5.7515 -21.3838,5.7515 z" />
    <path
       style="font-style:normal;font-variant:normal;font-weight:600;font-stretch:normal;font-size:147.474px;line-height:1.25;font-family:nunito;-inkscape-font-specification:'nunito Semi-Bold';letter-spacing:0px;word-spacing:0px;fill:#ffffff;fill-opacity:1;stroke:none;stroke-width:1.10606"
       d="m 310.35049,137.7219 q -3.24444,0 -5.45656,-1.76969 -2.06464,-1.76969 -2.06464,-5.30908 V 70.7685 q 0,-3.53939 2.06464,-5.30908 2.21212,-1.91717 5.45656,-1.91717 3.24444,0 5.30908,1.91717 2.06464,1.76969 2.06464,5.30908 v 59.87463 q 0,3.53939 -2.06464,5.30908 -2.06464,1.76969 -5.30908,1.76969 z"
       id="path849"
       inkscape:connector-curvature="0" />
    <path
       style="font-style:normal;font-variant:normal;font-weight:600;font-stretch:normal;font-size:147.474px;line-height:1.25;font-family:nunito;-inkscape-font-specification:'nunito Semi-Bold';letter-spacing:0px;word-spacing:0px;fill:#ed7e48;fill-opacity:1;stroke:none;stroke-width:1.10606"
       d="m 310.35049,49.08976 q -4.27676,0 -6.78383,-2.3596 -2.50706,-2.35959 -2.50706,-6.19392 0,-3.83434 2.50706,-6.04646 2.50707,-2.35959 6.78383,-2.35959 4.12928,0 6.63635,2.35959 2.65454,2.21212 2.65454,6.04646 0,3.83433 -2.50707,6.19392 -2.50706,2.3596 -6.78382,2.3596 z"
       id="path832"
       inkscape:connector-curvature="0" />
    <path
       inkscape:connector-curvature="0"
       id="path834"
       style="font-style:normal;font-variant:normal;font-weight:600;font-stretch:normal;font-size:147.474px;line-height:1.25;font-family:nunito;-inkscape-font-specification:'nunito Semi-Bold';letter-spacing:0px;word-spacing:0px;fill:#ffffff;fill-opacity:1;stroke:none;stroke-width:1.10606"
       d="m 369.81034,138.01685 q -10.6181,0 -18.7292,-4.57171 -7.9636,-4.5717 -12.3879,-12.97775 -4.2767,-8.55352 -4.2767,-19.76157 0,-11.35554 4.2767,-19.76158 4.4243,-8.55352 12.3879,-13.12523 8.1111,-4.57171 18.7292,-4.57171 10.6182,0 18.5818,4.57171 8.1111,4.57171 12.3879,13.12523 4.4242,8.40604 4.4242,19.76158 0,11.20805 -4.4242,19.76157 -4.2768,8.40605 -12.3879,12.97775 -7.9636,4.57171 -18.5818,4.57171 z m 0,-11.79795 q 9.8808,0 15.0424,-6.48888 5.3091,-6.48888 5.3091,-19.0242 0,-12.38786 -5.3091,-18.87673 -5.309,-6.63636 -15.0424,-6.63636 -9.7333,0 -15.0424,6.63636 -5.309,6.48887 -5.309,18.87673 0,12.53532 5.1616,19.0242 5.309,6.48888 15.1898,6.48888 z" />
    <path
       inkscape:connector-curvature="0"
       id="path836"
       style="font-style:normal;font-variant:normal;font-weight:600;font-stretch:normal;font-size:147.474px;line-height:1.25;font-family:nunito;-inkscape-font-specification:'nunito Semi-Bold';letter-spacing:0px;word-spacing:0px;fill:#ffffff;fill-opacity:1;stroke:none;stroke-width:1.10606"
       d="m 460.57404,63.2473 q 25.808,0 25.808,29.05247 v 38.34336 q 0,3.39191 -2.0646,5.30908 -1.9172,1.76969 -5.4566,1.76969 -3.3919,0 -5.4566,-1.91716 -1.9171,-1.91717 -1.9171,-5.16161 V 93.03714 q 0,-9.14341 -3.6869,-13.42017 -3.5394,-4.27676 -11.208,-4.27676 -8.996,0 -14.4525,5.60403 -5.4566,5.60403 -5.4566,15.04239 v 34.6565 q 0,3.24444 -2.0646,5.16161 -1.9172,1.91716 -5.3091,1.91716 -3.3919,0 -5.4566,-1.91716 -2.0646,-1.91717 -2.0646,-5.16161 v -60.0221 q 0,-3.09697 2.0646,-5.01414 2.2121,-2.06464 5.4566,-2.06464 3.2444,0 5.1616,1.91717 1.9172,1.91717 1.9172,5.01413 V 76.52 q 3.5393,-6.48887 9.8807,-9.88078 6.3414,-3.39192 14.3051,-3.39192 z" />
  </g>
</svg>
